<svg width="18" height="14" viewBox="0 0 18 14" fill="none" xmlns="http://www.w3.org/2000/svg">
<path fill-rule="evenodd" clip-rule="evenodd" d="M3.24246 3.9001C3.62114 5.06114 4.71264 5.9001 6.0001 5.9001C7.28755 5.9001 8.37906 5.06114 8.75773 3.9001C11.5052 3.9001 14.2526 3.9001 17.0001 3.9001C17.4972 3.9001 17.9001 3.49715 17.9001 3.0001C17.9001 2.50304 17.4972 2.1001 17.0001 2.1001C14.2526 2.1001 11.5052 2.1001 8.75773 2.1001C8.74802 2.06973 8.76103 2.11019 8.75773 2.1001C8.37906 0.939057 7.28755 0.100098 6.0001 0.100098C4.71264 0.100098 3.62114 0.939057 3.24246 2.1001C2.49501 2.1001 1.74755 2.1001 1.0001 2.1001C0.503041 2.1001 0.100098 2.50304 0.100098 3.0001C0.100098 3.49715 0.503041 3.9001 1.0001 3.9001C1.74755 3.9001 2.49501 3.9001 3.24246 3.9001ZM6.0001 1.9001C5.39258 1.9001 4.9001 2.39258 4.9001 3.0001C4.9001 3.60761 5.39258 4.1001 6.0001 4.1001C6.60761 4.1001 7.1001 3.60761 7.1001 3.0001C7.1001 2.39258 6.60761 1.9001 6.0001 1.9001Z" fill="#07041E"/>
<path fill-rule="evenodd" clip-rule="evenodd" d="M0.100098 11.0001C0.100098 10.503 0.503041 10.1001 1.0001 10.1001C3.74755 10.1001 6.49501 10.1001 9.24247 10.1001C9.62114 8.93906 10.7126 8.1001 12.0001 8.1001C13.2876 8.1001 14.3791 8.93906 14.7577 10.1001C14.7577 10.1001 16.4787 10.1001 17.0001 10.1001C17.4972 10.1001 17.9001 10.503 17.9001 11.0001C17.9001 11.4972 17.4972 11.9001 17.0001 11.9001C16.7779 11.9001 14.7577 11.9001 14.7577 11.9001C14.3791 13.0611 13.2876 13.9001 12.0001 13.9001C10.7126 13.9001 9.62114 13.0611 9.24247 11.9001C6.49501 11.9001 3.74755 11.9001 1.0001 11.9001C0.503041 11.9001 0.100098 11.4972 0.100098 11.0001ZM10.9001 11.0001C10.9001 10.3926 11.3926 9.9001 12.0001 9.9001C12.6076 9.9001 13.1001 10.3926 13.1001 11.0001C13.1001 11.6076 12.6076 12.1001 12.0001 12.1001C11.3926 12.1001 10.9001 11.6076 10.9001 11.0001Z" fill="#07041E"/>
</svg>
