<svg width="12" height="18" viewBox="0 0 12 18" fill="none" xmlns="http://www.w3.org/2000/svg">
<path fill-rule="evenodd" clip-rule="evenodd" d="M8.93914 1.8938C8.9741 2.27284 8.91785 2.72009 8.79715 3.20862L8.79621 3.21244L8.00209 6.35583L9.73351 6.71856C10.6767 6.88257 11.5198 7.34208 11.7676 8.24588C12.0012 9.09773 11.5937 9.98765 10.9686 10.7516L10.9636 10.7578L6.2261 16.3048L6.21785 16.3138C5.89496 16.6678 5.56595 16.9563 5.23968 17.1333C4.93956 17.296 4.44423 17.4635 3.97045 17.1847C3.51342 16.9156 3.40018 16.4164 3.37642 16.078C3.35022 15.7049 3.40963 15.2647 3.52824 14.7847L4.26624 11.5999L2.48521 11.2801C2.48454 11.28 2.48387 11.2799 2.4832 11.2798C1.5731 11.1206 0.666528 10.6848 0.309519 9.82127C-0.0657158 8.91368 0.320707 7.93657 1.09976 7.07084L1.10557 7.06438L1.11153 7.05805C1.75031 6.38046 2.20908 5.88678 2.49112 5.57383C2.81744 5.21178 3.20232 4.8083 3.63543 4.35426C3.76236 4.2212 3.89343 4.08379 4.02839 3.94181C4.6281 3.31089 5.31912 2.57458 6.10465 1.68767C6.41012 1.33755 6.72962 1.04967 7.05363 0.871021C7.35595 0.704326 7.83911 0.543186 8.30926 0.800479C8.77269 1.05409 8.90679 1.54303 8.93914 1.8938ZM7.41749 2.47742C7.35975 2.53527 7.29828 2.60113 7.2334 2.67556L7.2295 2.68003C6.42659 3.58664 5.72143 4.33788 5.1156 4.97524C4.97438 5.12381 4.83932 5.2654 4.71013 5.40085C4.28073 5.85102 3.91611 6.23328 3.60535 6.57807C3.31225 6.90328 2.84578 7.4051 2.20919 8.08042C1.59313 8.76757 1.64754 9.13163 1.69572 9.24816C1.762 9.40849 2.0333 9.67862 2.74303 9.80244L2.74664 9.80308L5.04011 10.2148C5.58894 10.3133 5.95236 10.8381 5.85441 11.3852C5.85103 11.4042 5.8471 11.423 5.84263 11.4417L4.98566 15.14C4.95152 15.2777 4.9258 15.4015 4.90747 15.5118C4.96814 15.4532 5.03293 15.3867 5.10164 15.3117L9.81251 9.79589C10.3344 9.15581 10.3582 8.77835 10.321 8.64254C10.2992 8.56291 10.1762 8.31565 9.46686 8.19471L9.45294 8.19234L7.20481 7.72137C6.66288 7.61463 6.30807 7.09131 6.40846 6.54842C6.41182 6.53026 6.41566 6.5123 6.41995 6.49456L6.42171 6.48728L7.34139 2.847C7.37533 2.70943 7.40021 2.58638 7.41749 2.47742Z" fill="#2665FF"/>
</svg>
